<?xml version="1.0" encoding="UTF-8" standalone="no"?>
<!-- Generator: Adobe Illustrator 19.0.0, SVG Export Plug-In . SVG Version: 6.00 Build 0)  -->

<svg
   xmlns:dc="http://purl.org/dc/elements/1.1/"
   xmlns:cc="http://creativecommons.org/ns#"
   xmlns:rdf="http://www.w3.org/1999/02/22-rdf-syntax-ns#"
   xmlns:svg="http://www.w3.org/2000/svg"
   xmlns="http://www.w3.org/2000/svg"
   xmlns:sodipodi="http://sodipodi.sourceforge.net/DTD/sodipodi-0.dtd"
   xmlns:inkscape="http://www.inkscape.org/namespaces/inkscape"
   version="1.1"
   id="layer"
   x="0px"
   y="0px"
   viewBox="-153 -46 600.09998 144.10001"
   xml:space="preserve"
   sodipodi:docname="canada-post-logo.svg"
   width="600.09998"
   height="144.10001"
   inkscape:version="0.92.5 (2060ec1f9f, 2020-04-08)"><metadata
   id="metadata110"><rdf:RDF><cc:Work
       rdf:about=""><dc:format>image/svg+xml</dc:format><dc:type
         rdf:resource="http://purl.org/dc/dcmitype/StillImage" /></cc:Work></rdf:RDF></metadata><defs
   id="defs108" /><sodipodi:namedview
   pagecolor="#ffffff"
   bordercolor="#666666"
   borderopacity="1"
   objecttolerance="10"
   gridtolerance="10"
   guidetolerance="10"
   inkscape:pageopacity="0"
   inkscape:pageshadow="2"
   inkscape:window-width="640"
   inkscape:window-height="480"
   id="namedview106"
   showgrid="false"
   inkscape:zoom="1.6763804"
   inkscape:cx="299.2"
   inkscape:cy="70.9"
   inkscape:current-layer="layer" />
<style
   type="text/css"
   id="style73">
	.st0{fill:#004A8E;}
	.st1{fill:#FFFFFF;}
	.st2{fill:#D3200C;}
</style>
<g
   id="Level-1-_x2B_-2"
   transform="translate(-26.8,-252.8)">
	<g
   id="Home-_x3E_-Business"
   transform="translate(-39,-63)">
		<g
   id="CP_4C_E"
   transform="translate(39,63)">
			<polygon
   id="Fill-1"
   class="st0"
   points="473.9,206.8 -126.1,206.8 -126.1,350.9 473.9,350.9 "
   style="fill:#004a8e" />
			<path
   id="Fill-2"
   class="st1"
   d="m 115.6,279.1 c 0,-0.7 0,-1.4 0,-2.1 h -241.8 v 3.6 h 241.8 c 0,-0.5 0,-1 0,-1.5"
   inkscape:connector-curvature="0"
   style="fill:#ffffff" />
			<path
   id="Fill-3"
   class="st1"
   d="m 232,277 c 0,0.7 0,1.4 0,2.1 0,0.5 0,1 0,1.5 H 473.9 V 277 H 232"
   inkscape:connector-curvature="0"
   style="fill:#ffffff" />
			<path
   id="Fill-4"
   class="st2"
   d="m 232,279 c 0,32.6 -26,59.1 -58.2,59.1 -32.1,0 -58.2,-26.4 -58.2,-59.1 0,-32.7 26,-59.1 58.2,-59.1 32.2,0 58.2,26.5 58.2,59.1"
   inkscape:connector-curvature="0"
   style="fill:#d3200c" />
			<polyline
   id="Fill-5"
   class="st1"
   points="155.4,286.7 159.5,282.5 205.6,280.4 207.7,278.3 162.2,278.3 137.5,249 220.1,276.9      192.5,304.9 137.5,304.9 143,299.3 189.1,297.2 191.1,295.1 147.1,295.1 151.2,290.9 197.3,288.8 199.4,286.7 155.4,286.7    "
   style="fill:#ffffff" />
			<path
   id="Fill-6"
   class="st1"
   d="m 254.2,232.9 h 6.3 c 5.4,0 10.3,1.6 10.3,7.6 0,5.9 -4.2,8 -9.5,8 h -2.1 v 9.5 h -5 z m 5,11.6 h 1.7 c 2.5,0 4.7,-0.8 4.7,-3.7 0,-2.9 -2.2,-3.9 -4.7,-3.9 h -1.7 z"
   inkscape:connector-curvature="0"
   style="fill:#ffffff" />
			<path
   id="Fill-7"
   class="st1"
   d="m 294.1,232.5 c 7.8,0 12.1,5.3 12.1,12.9 0,7.6 -4.3,13.1 -12.1,13.1 -8,0 -12.1,-5.4 -12.1,-13.1 0,-7.7 4.3,-12.9 12.1,-12.9 z m 0,22 c 5,0 6.9,-4.6 6.9,-9.1 0,-4.4 -2,-8.9 -6.9,-8.9 -4.9,0 -7,4.5 -7,8.9 0.1,4.5 2,9.1 7,9.1 z"
   inkscape:connector-curvature="0"
   style="fill:#ffffff" />
			<path
   id="Fill-8"
   class="st1"
   d="m 332.9,237.5 c -1.6,-0.7 -3.3,-1.1 -5.1,-1.1 -1.7,0 -3.9,0.7 -3.9,3.5 0,4.4 10.8,2.5 10.8,10.9 0,5.5 -4.3,7.6 -9.3,7.6 -2.7,0 -3.9,-0.4 -6.4,-1 l 0.5,-4.5 c 1.7,1 3.6,1.6 5.6,1.6 1.9,0 4.4,-1 4.4,-3.2 0,-4.8 -10.8,-2.8 -10.8,-11.1 0,-5.6 4.3,-7.6 8.6,-7.6 2.2,0 4.1,0.3 5.9,0.9 l -0.3,4"
   inkscape:connector-curvature="0"
   style="fill:#ffffff" />
			<polyline
   id="Fill-9"
   class="st1"
   points="352.7,236.9 345.6,236.9 345.6,232.9 364.7,232.9 364.7,236.9 357.6,236.9 357.6,258      352.7,258 352.7,236.9    "
   style="fill:#ffffff" />
			<polyline
   id="Fill-10"
   class="st1"
   points="376.7,232.9 391.3,232.9 391.3,236.9 381.7,236.9 381.7,243.1 390.5,243.1 390.5,247      381.7,247 381.7,254.1 391.4,254.1 391.4,258 376.7,258 376.7,232.9    "
   style="fill:#ffffff" />
			<path
   id="Fill-11"
   class="st1"
   d="m 418.6,237.5 c -1.5,-0.7 -3.3,-1.1 -5,-1.1 -1.7,0 -3.9,0.7 -3.9,3.5 0,4.4 10.8,2.5 10.8,10.9 0,5.5 -4.3,7.6 -9.3,7.6 -2.7,0 -3.9,-0.4 -6.3,-1 l 0.4,-4.5 c 1.7,1 3.7,1.6 5.6,1.6 1.9,0 4.4,-1 4.4,-3.2 0,-4.8 -10.8,-2.8 -10.8,-11.1 0,-5.6 4.3,-7.6 8.6,-7.6 2.1,0 4.1,0.3 5.9,0.9 l -0.4,4"
   inkscape:connector-curvature="0"
   style="fill:#ffffff" />
			<path
   id="Fill-12"
   class="st1"
   d="m 272.6,324.4 c -1.8,0.4 -3.7,0.8 -5.6,0.8 -8,0 -13.5,-4.1 -13.5,-12.6 0,-8.6 5.2,-13.4 13.5,-13.4 1.6,0 3.8,0.3 5.6,1 l -0.3,4.2 c -1.9,-1.1 -3.6,-1.3 -5.4,-1.3 -5.1,0 -8.3,4 -8.3,9.1 0,5.1 3.1,8.9 8.4,8.9 1.9,0 4.3,-0.4 5.4,-1 l 0.2,4.3"
   inkscape:connector-curvature="0"
   style="fill:#ffffff" />
			<path
   id="Fill-13"
   class="st1"
   d="m 292.2,299.7 h 5.6 l 9.7,25.1 H 302 l -2.1,-5.7 h -10 l -2.2,5.7 h -5.1 z m 2.8,5 v 0 l -3.6,10.4 h 7.2 z"
   inkscape:connector-curvature="0"
   style="fill:#ffffff" />
			<polyline
   id="Fill-14"
   class="st1"
   points="319.3,299.7 325.4,299.7 334.8,318.4 334.9,318.4 334.9,299.7 339.7,299.7      339.7,324.7 333.6,324.7 324.2,306 324.1,306 324.1,324.7 319.3,324.7 319.3,299.7    "
   style="fill:#ffffff" />
			<path
   id="Fill-15"
   class="st1"
   d="m 361.1,299.7 h 5.6 l 9.7,25.1 h -5.5 l -2.1,-5.7 h -10 l -2.2,5.7 h -5.1 z m 2.7,5 v 0 l -3.7,10.4 h 7.2 z"
   inkscape:connector-curvature="0"
   style="fill:#ffffff" />
			<path
   id="Fill-16"
   class="st1"
   d="m 388.4,299.7 h 6.8 c 7.6,0 14.3,2.6 14.3,12.5 0,10 -6.7,12.5 -14.3,12.5 h -6.8 z m 5,21.1 h 2.8 c 4.1,0 8.1,-3.1 8.1,-8.6 0,-5.5 -4,-8.6 -8.1,-8.6 h -2.8 z"
   inkscape:connector-curvature="0"
   style="fill:#ffffff" />
			<path
   id="Fill-17"
   class="st1"
   d="m 429.9,299.7 h 5.6 l 9.7,25.1 h -5.5 l -2.1,-5.7 h -10 l -2.2,5.7 h -5.1 z m 2.8,5 v 0 l -3.6,10.4 h 7.2 z"
   inkscape:connector-curvature="0"
   style="fill:#ffffff" />
			<path
   id="Fill-18"
   class="st1"
   d="m -76.9,257.7 c -1.8,0.4 -3.8,0.8 -5.6,0.8 -8,0 -13.6,-4.1 -13.6,-12.5 0,-8.6 5.2,-13.4 13.6,-13.4 1.6,0 3.8,0.3 5.6,1 l -0.3,4.2 c -1.9,-1.1 -3.6,-1.3 -5.3,-1.3 -5.1,0 -8.3,3.9 -8.3,9.1 0,5.1 3.1,9 8.4,9 1.9,0 4.2,-0.4 5.4,-1.1 l 0.1,4.2"
   inkscape:connector-curvature="0"
   style="fill:#ffffff" />
			<path
   id="Fill-19"
   class="st1"
   d="m -57.3,232.9 h 5.6 L -42,258 h -5.5 l -2.1,-5.7 h -10 l -2.2,5.7 H -67 Z m 2.7,5.1 v 0 l -3.6,10.3 h 7.2 z"
   inkscape:connector-curvature="0"
   style="fill:#ffffff" />
			<polyline
   id="Fill-20"
   class="st1"
   points="-30.2,232.9 -24.2,232.9 -14.7,251.7 -14.7,251.7 -14.7,232.9 -9.9,232.9 -9.9,258      -16,258 -25.4,239.3 -25.5,239.3 -25.5,258 -30.2,258 -30.2,232.9    "
   style="fill:#ffffff" />
			<path
   id="Fill-21"
   class="st1"
   d="m 11.5,232.9 h 5.6 l 9.7,25.1 h -5.5 l -2.1,-5.7 H 9.2 L 7,258 H 1.9 Z m 2.8,5.1 v 0 l -3.7,10.3 h 7.2 z"
   inkscape:connector-curvature="0"
   style="fill:#ffffff" />
			<path
   id="Fill-22"
   class="st1"
   d="m 38.9,232.9 h 6.8 c 7.6,0 14.3,2.6 14.3,12.6 0,10 -6.7,12.5 -14.3,12.5 h -6.8 z m 4.9,21.2 h 2.8 c 4.1,0 8.1,-3.1 8.1,-8.6 0,-5.5 -4,-8.6 -8.1,-8.6 h -2.8 z"
   inkscape:connector-curvature="0"
   style="fill:#ffffff" />
			<path
   id="Fill-23"
   class="st1"
   d="M 80.4,232.9 H 86 l 9.7,25.1 h -5.5 l -2.1,-5.7 h -10 l -2.2,5.7 h -5.1 z m 2.7,5.1 v 0 l -3.7,10.3 h 7.2 z"
   inkscape:connector-curvature="0"
   style="fill:#ffffff" />
			<path
   id="Fill-24"
   class="st1"
   d="m -95.3,299.7 h 6.2 c 5.4,0 10.3,1.6 10.3,7.6 0,5.9 -4.2,8 -9.5,8 h -2.1 v 9.5 h -4.9 z m 4.9,11.6 h 1.7 c 2.5,0 4.7,-0.8 4.7,-3.7 0,-2.9 -2.2,-3.9 -4.7,-3.9 h -1.7 z"
   inkscape:connector-curvature="0"
   style="fill:#ffffff" />
			<path
   id="Fill-25"
   class="st1"
   d="m -55.5,299.2 c 7.8,0 12.1,5.3 12.1,12.9 0,7.6 -4.2,13.1 -12.1,13.1 -7.9,0 -12.1,-5.4 -12.1,-13.1 0,-7.7 4.3,-12.9 12.1,-12.9 z m 0,22 c 5.1,0 7,-4.5 7,-9.1 0,-4.4 -2,-8.9 -7,-8.9 -4.9,0 -6.9,4.5 -6.9,8.9 0,4.6 1.9,9.1 6.9,9.1 z"
   inkscape:connector-curvature="0"
   style="fill:#ffffff" />
			<path
   id="Fill-26"
   class="st1"
   d="m -16.7,304.3 c -1.6,-0.7 -3.3,-1.1 -5,-1.1 -1.7,0 -3.9,0.7 -3.9,3.5 0,4.3 10.8,2.5 10.8,10.9 0,5.5 -4.3,7.6 -9.3,7.6 -2.7,0 -3.9,-0.4 -6.3,-1 l 0.4,-4.5 c 1.7,0.9 3.7,1.5 5.6,1.5 1.9,0 4.4,-1 4.4,-3.2 0,-4.8 -10.8,-2.8 -10.8,-11.1 0,-5.6 4.3,-7.7 8.6,-7.7 2.1,0 4.1,0.3 5.9,0.9 l -0.4,4.2"
   inkscape:connector-curvature="0"
   style="fill:#ffffff" />
			<polyline
   id="Fill-27"
   class="st1"
   points="3.1,303.6 -4,303.6 -4,299.7 15.1,299.7 15.1,303.6 8.1,303.6 8.1,324.7 3.1,324.7      3.1,303.6    "
   style="fill:#ffffff" />
		</g>
	</g>
</g>
</svg>