<?xml version="1.0" encoding="UTF-8" standalone="no"?>
<!-- Uploaded to: SVG Repo, www.svgrepo.com, Generator: SVG Repo Mixer Tools -->

<svg
   xmlns:dc="http://purl.org/dc/elements/1.1/"
   xmlns:cc="http://creativecommons.org/ns#"
   xmlns:rdf="http://www.w3.org/1999/02/22-rdf-syntax-ns#"
   xmlns:svg="http://www.w3.org/2000/svg"
   xmlns="http://www.w3.org/2000/svg"
   xmlns:sodipodi="http://sodipodi.sourceforge.net/DTD/sodipodi-0.dtd"
   xmlns:inkscape="http://www.inkscape.org/namespaces/inkscape"
   height="449.1228"
   width="800"
   version="1.1"
   id="Capa_1"
   viewBox="0 0 490.2 275.2"
   xml:space="preserve"
   sodipodi:docname="cash.svg"
   style="fill:#000000"
   inkscape:version="0.92.5 (2060ec1f9f, 2020-04-08)"><metadata
   id="metadata58"><rdf:RDF><cc:Work
       rdf:about=""><dc:format>image/svg+xml</dc:format><dc:type
         rdf:resource="http://purl.org/dc/dcmitype/StillImage" /></cc:Work></rdf:RDF></metadata><defs
   id="defs56">
	

		
	</defs><sodipodi:namedview
   pagecolor="#ffffff"
   bordercolor="#666666"
   borderopacity="1"
   objecttolerance="10"
   gridtolerance="10"
   guidetolerance="10"
   inkscape:pageopacity="0"
   inkscape:pageshadow="2"
   inkscape:window-width="640"
   inkscape:window-height="480"
   id="namedview54"
   showgrid="false"
   inkscape:zoom="1.355"
   inkscape:cx="357.56458"
   inkscape:cy="224.5614"
   inkscape:current-layer="Capa_1" />
<path
   d="m 368.4,137.6 c 0,12.9 -10.5,23.4 -23.4,23.4 -12.9,0 -23.4,-10.5 -23.4,-23.4 0,-12.9 10.5,-23.4 23.4,-23.4 12.9,0 23.4,10.5 23.4,23.4 z m -292.3,0 c 0,12.9 10.5,23.4 23.4,23.4 12.9,0 23.4,-10.5 23.4,-23.4 0,-12.9 -10.5,-23.4 -23.4,-23.4 -12.9,0 -23.4,10.5 -23.4,23.4 z M 38.5,275.2 h 268 V 242.3 H 78.1 c 0.4,-2.3 0.7,-4.7 0.7,-7.2 0,-21.5 -17.5,-39 -39,-39 -2.3,0 -4.6,0.2 -6.8,0.6 V 78.4 c 2.2,0.4 4.5,0.6 6.8,0.6 21.5,0 39,-17.5 39,-39 0,-2.5 -0.2,-4.8 -0.7,-7.2 h 286.1 c -0.8,3 -1.2,6.2 -1.2,9.5 0,21.5 17.5,39 39,39 3.3,0 6.6,-0.4 9.6,-1.2 V 160 h 32.9 V 38.5 C 444.5,17.3 427.2,0 406,0 H 38.5 C 17.3,0 0,17.3 0,38.5 v 198.2 c 0,21.2 17.3,38.5 38.5,38.5 z m 283.1,-27.6 c -2.7,0 -4.9,2.2 -4.9,4.9 v 17.8 c 0,2.7 2.2,4.9 4.9,4.9 h 118 c 2.7,0 4.9,-2.2 4.9,-4.9 v -17.8 c 0,-2.7 -2.2,-4.9 -4.9,-4.9 z m 145.8,-16 v -17.8 c 0,-2.7 -2.2,-4.9 -4.9,-4.9 h -118 c -2.7,0 -4.9,2.2 -4.9,4.9 v 17.8 c 0,2.7 2.2,4.9 4.9,4.9 h 118 c 2.7,0 4.9,-2.2 4.9,-4.9 z m 17.9,-61.4 h -118 c -2.7,0 -4.9,2.2 -4.9,4.9 v 17.8 c 0,2.7 2.2,4.9 4.9,4.9 h 118 c 2.7,0 4.9,-2.2 4.9,-4.9 v -17.8 c 0,-2.7 -2.2,-4.9 -4.9,-4.9 z m -263,-117 c 46.6,0 84.4,37.8 84.4,84.4 0,46.6 -37.8,84.4 -84.4,84.4 -46.6,0 -84.4,-37.8 -84.4,-84.4 0,-46.6 37.7,-84.4 84.4,-84.4 z m 7.4,21.7 h -9.6 c -1.5,0 -2.6,1.2 -2.6,2.6 V 89 c -7.3,1.1 -13.3,3.7 -17.8,8.1 -5,4.8 -7.5,10.9 -7.5,18.4 0,8.2 2.4,14.5 7.1,18.7 4.7,4.2 12.3,8.4 22.6,12.6 4.3,1.8 7.2,3.7 8.9,5.6 1.7,1.9 2.5,4.6 2.5,8.1 0,3 -0.8,5.4 -2.4,7.3 -1.6,1.8 -4,2.8 -7.2,2.8 -3.8,0 -6.9,-1.2 -9.2,-3.6 -1.9,-2 -3.1,-5 -3.4,-9 -0.1,-1.6 -1.5,-2.8 -3.1,-2.7 l -15.8,0.3 c -1.7,0 -3.1,1.5 -3.1,3.2 0.4,8.4 3.1,14.8 8.1,19.4 5.4,4.9 12.2,7.9 20.3,8.8 v 10.8 c 0,1.5 1.2,2.6 2.6,2.6 h 9.6 c 1.5,0 2.6,-1.2 2.6,-2.6 v -11.2 c 6.5,-1.2 11.8,-3.8 15.9,-7.7 4.8,-4.7 7.2,-10.8 7.2,-18.5 0,-8 -2.4,-14.2 -7.2,-18.6 -4.8,-4.3 -12.3,-8.7 -22.5,-13 -4.4,-1.9 -7.4,-3.8 -9,-5.7 -1.6,-1.9 -2.4,-4.4 -2.4,-7.4 0,-3 0.7,-5.4 2.2,-7.4 1.5,-1.9 3.8,-2.9 6.9,-2.9 3.1,0 5.5,1.2 7.4,3.5 1.5,1.9 2.4,4.5 2.7,8 0.1,1.6 1.6,2.7 3.1,2.7 l 15.8,-0.2 c 1.7,0 3.2,-1.5 3.1,-3.2 -0.4,-6.9 -2.6,-12.7 -6.7,-17.4 -4.2,-4.9 -9.7,-8 -16.6,-9.4 V 77.5 c 0.1,-1.5 -1.1,-2.6 -2.5,-2.6 z"
   id="path47"
   inkscape:connector-curvature="0" />
</svg>