<?xml version="1.0" encoding="UTF-8" standalone="no"?>
<!-- Created with Inkscape (http://www.inkscape.org/) -->

<svg
   xmlns:dc="http://purl.org/dc/elements/1.1/"
   xmlns:cc="http://creativecommons.org/ns#"
   xmlns:rdf="http://www.w3.org/1999/02/22-rdf-syntax-ns#"
   xmlns:svg="http://www.w3.org/2000/svg"
   xmlns="http://www.w3.org/2000/svg"
   xmlns:sodipodi="http://sodipodi.sourceforge.net/DTD/sodipodi-0.dtd"
   xmlns:inkscape="http://www.inkscape.org/namespaces/inkscape"
   width="800"
   height="330"
   viewBox="0 0 211.66666 87.312502"
   version="1.1"
   id="svg8"
   inkscape:version="0.92.5 (2060ec1f9f, 2020-04-08)"
   sodipodi:docname="InteracETransfer-logo.svg"
   inkscape:export-filename="/home/skull/projects/bliquid/img/InteracETransfer-logo.png"
   inkscape:export-xdpi="7.1999998"
   inkscape:export-ydpi="7.1999998">
  <defs
     id="defs2">
    <clipPath
       transform="translate(-0.0004)"
       id="a">
      <rect
         id="rect913"
         fill="none"
         height="174.27399"
         width="174.271" />
    </clipPath>
  </defs>
  <sodipodi:namedview
     id="base"
     pagecolor="#ffffff"
     bordercolor="#666666"
     borderopacity="1.0"
     inkscape:pageopacity="0.0"
     inkscape:pageshadow="2"
     inkscape:zoom="1.65"
     inkscape:cx="399.39394"
     inkscape:cy="165"
     inkscape:document-units="mm"
     inkscape:current-layer="layer1"
     showgrid="false"
     units="px"
     showguides="false" />
  <metadata
     id="metadata5">
    <rdf:RDF>
      <cc:Work
         rdf:about="">
        <dc:format>image/svg+xml</dc:format>
        <dc:type
           rdf:resource="http://purl.org/dc/dcmitype/StillImage" />
        <dc:title />
      </cc:Work>
    </rdf:RDF>
  </metadata>
  <g
     inkscape:label="Layer 1"
     inkscape:groupmode="layer"
     id="layer1"
     transform="translate(0,-209.68748)">
    <g
       id="g1031">
      <path
         style="fill:#4d4d4d;stroke-width:0.26458332"
         inkscape:connector-curvature="0"
         d="M 86.585186,211.25085 H 197.85567 a 11.12808,7.0350341 0 0 1 11.12808,7.03504 v 70.34482 a 11.127287,7.0345326 0 0 1 -11.12729,7.03453 H 86.583573 a 11.125701,7.0335297 0 0 1 -11.125701,-7.03353 v -70.34632 a 11.127287,7.0345326 0 0 1 11.127314,-7.03454 z"
         id="path976" />
      <path
         style="fill:#ffffff;stroke-width:0.26458332"
         inkscape:connector-curvature="0"
         d="m 197.85787,211.25075 a 11.12908,7.035666 0 0 1 11.1257,7.03503 v 70.34482 a 11.127906,7.0349238 0 0 1 -11.1257,7.03454 H 86.585788 A 11.124693,7.0328929 0 0 1 75.458505,288.6306 v -70.34482 a 11.125875,7.03364 0 0 1 11.127283,-7.03503 H 197.85787 m 0,-1.48885 H 86.585788 a 13.496976,8.5326203 0 0 0 -13.482344,8.52388 v 70.34482 a 13.497301,8.5328259 0 0 0 13.482359,8.52338 H 197.85787 a 13.496452,8.5322893 0 0 0 13.48078,-8.52338 v -70.34482 a 13.496127,8.5320837 0 0 0 -13.48078,-8.52388"
         id="path978" />
    </g>
    <g
       id="g950"
       clip-path="url(#a)"
       transform="matrix(0.50146369,0,0,0.50146369,-0.2211997,209.60251)"
       style="stroke-width:0.5276221">
      <path
         id="path920"
         d="m 16.99622,2.96921 h 140.277 a 14.029,14.029 0 0 1 14.029,14.029 v 140.279 a 14.028,14.028 0 0 1 -14.028,14.028 H 16.9942 a 14.026,14.026 0 0 1 -14.026,-14.026 V 16.99722 A 14.028,14.028 0 0 1 16.99622,2.96921 Z"
         inkscape:connector-curvature="0"
         style="fill:#fdb913;stroke-width:0.5276221" />
      <path
         id="path922"
         transform="translate(-4e-4)"
         d="m 157.2764,2.969 a 14.03026,14.03026 0 0 1 14.026,14.029 v 140.279 a 14.02878,14.02878 0 0 1 -14.026,14.028 H 16.99739 A 14.02473,14.02473 0 0 1 2.96939,157.277 V 16.998 a 14.02622,14.02622 0 0 1 14.028,-14.029 h 140.279 m 0,-2.969 H 16.99739 A 17.01543,17.01543 0 0 0 4e-4,16.998 v 140.279 a 17.01584,17.01584 0 0 0 16.997,16.997 h 140.279 a 17.01477,17.01477 0 0 0 16.995,-16.997 V 16.998 A 17.01436,17.01436 0 0 0 157.2764,0"
         inkscape:connector-curvature="0"
         style="fill:#ffffff;stroke-width:0.5276221" />
      <path
         id="path924"
         transform="translate(-4e-4)"
         d="m 96.95889,88.95432 -0.014,-30.139 7.867,-1.867 v 3.951 c 0,0 2.038,-5.196 6.767,-6.402 a 4.52753,4.52753 0 0 1 2.188,-0.147 v 7.69 a 11.02253,11.02253 0 0 0 -4.122,0.858 c -2.907,1.148 -4.37,3.653 -4.37,7.477 l 0.005,16.642 z"
         inkscape:connector-curvature="0"
         style="fill:#231f20;stroke-width:0.5276221" />
      <path
         id="path926"
         transform="translate(-4e-4)"
         d="m 55.4872,98.75491 c 0,0 -1.279,-1.918 -1.279,-8.699 v -15.007 l -4.048,0.963 v -6.182 l 4.057,-0.958 v -6.739 l 8.365,-1.976 v 6.739 l 5.911,-1.404 v 6.175 l -5.911,1.403 c 0,0 -0.009,12.295 0,15.281 0,6.948 1.844,8.282 1.844,8.282 z"
         inkscape:connector-curvature="0"
         style="fill:#231f20;stroke-width:0.5276221" />
      <path
         id="path928"
         transform="translate(-4e-4)"
         d="m 69.3675,80.82492 c 0,-5.358 0.763,-9.267 2.401,-12.267 1.949,-3.56 5.145,-5.88 9.801,-6.94 9.177,-2.087 12.489,3.345 12.361,10.629 -0.049,2.605 -0.037,3.874 -0.037,3.874 l -16.168,3.8 v 0.261 c 0,5.089 1.067,7.504 4.292,6.82 2.786,-0.588 3.561,-2.333 3.781,-4.491 0.036,-0.348 0.053,-1.233 0.053,-1.233 l 7.574,-1.815 c 0,0 0.018,0.62 0.007,1.316 -0.066,2.892 -0.907,10.066 -11.434,12.555 -9.972,2.367 -12.631,-3.723 -12.631,-12.509 m 12.538,-13.593 c -2.679,0.608 -4.084,3.236 -4.145,7.59 l 8.133,-1.937 c 0.014,-0.197 0.016,-0.631 0.014,-1.311 -0.014,-3.287 -1.03,-5.022 -4.002,-4.342"
         inkscape:connector-curvature="0"
         style="fill:#231f20;stroke-width:0.5276221" />
      <path
         id="path930"
         transform="translate(-4e-4)"
         d="m 142.07961,63.2 c -0.313,-9.179 2.068,-16.464 12.309,-18.784 6.527,-1.483 9.006,0.215 10.261,1.856 1.207,1.566 1.673,3.678 1.673,6.636 l 0.007,0.543 -8.012,1.904 c 0,0 -0.006,-1.08 -0.006,-1.115 0.006,-3.508 -0.969,-4.842 -3.517,-4.204 -3.03,0.761 -4.254,3.637 -4.254,9.355 0,2.03 0.009,2.394 0.009,2.668 0,5.811 0.794,8.471 4.286,7.74 3.029,-0.626 3.444,-3.286 3.493,-5.618 0.006,-0.366 0.021,-1.538 0.021,-1.538 l 8,-1.89 c 0,0 0.008,0.591 0.008,1.248 -0.02,7.62 -4.036,12.422 -11.56,14.173 -10.366,2.43 -12.396,-3.56 -12.718,-12.974"
         inkscape:connector-curvature="0"
         style="fill:#231f20;stroke-width:0.5276221" />
      <path
         id="path932"
         transform="translate(-4e-4)"
         d="m 114.38309,76.051 c 0,-6.982 4.09,-9.19 10.246,-11.737 5.536,-2.29 5.656,-3.427 5.679,-5.417 0.031,-1.675 -0.746,-3.108 -3.502,-2.405 a 4.15967,4.15967 0 0 0 -3.336,3.943 14.36836,14.36836 0 0 0 -0.052,1.547 l -7.762,1.833 a 15.44174,15.44174 0 0 1 0.536,-4.586 c 1.241,-4.175 4.923,-6.984 11.279,-8.455 8.258,-1.903 11.011,1.721 11.021,7.358 v 13.349 c 0,6.456 1.198,7.402 1.198,7.402 l -7.62,1.803 a 16.55966,16.55966 0 0 1 -1.021,-2.737 c 0,0 -1.669,4.204 -7.423,5.556 -6.043,1.425 -9.243,-2.32 -9.243,-7.454 m 15.872,-9.534 a 28.771,28.771 0 0 1 -4.054,2.374 c -2.54,1.241 -3.688,2.772 -3.688,5.13 0,2.042 1.265,3.383 3.564,2.815 2.466,-0.622 4.178,-2.923 4.178,-6.12 z"
         inkscape:connector-curvature="0"
         style="fill:#231f20;stroke-width:0.5276221" />
      <path
         id="path934"
         transform="translate(-4e-4)"
         d="m 11.749,119.88239 a 4.83715,4.83715 0 0 1 -4.053,-7.468 l 0.054,-0.07 0.091,-0.024 11.378,-2.686 v 8.641 l -0.177,0.041 c -2.581,0.621 -5.666,1.328 -6.301,1.463 a 4.75831,4.75831 0 0 1 -0.992,0.103"
         inkscape:connector-curvature="0"
         style="fill:#231f20;stroke-width:0.5276221" />
      <path
         id="path936"
         transform="translate(-4e-4)"
         d="m 11.749,130.93631 a 4.82982,4.82982 0 0 1 -4.831,-4.825 4.77892,4.77892 0 0 1 0.778,-2.627 l 0.054,-0.081 0.091,-0.023 11.378,-2.685 v 8.641 l -0.177,0.046 c -2.581,0.619 -5.666,1.334 -6.301,1.461 a 5.11572,5.11572 0 0 1 -0.992,0.093"
         inkscape:connector-curvature="0"
         style="fill:#231f20;stroke-width:0.5276221" />
      <path
         id="path938"
         transform="translate(-4e-4)"
         d="m 11.749,142.01151 a 4.83388,4.83388 0 0 1 -4.831,-4.829 4.76191,4.76191 0 0 1 0.778,-2.627 l 0.054,-0.087 11.469,-2.703 v 8.641 l -0.177,0.046 c -2.726,0.656 -5.753,1.34 -6.301,1.461 a 5.04086,5.04086 0 0 1 -0.992,0.098"
         inkscape:connector-curvature="0"
         style="fill:#231f20;stroke-width:0.5276221" />
      <polygon
         id="polygon940"
         points="19.218,107.21 10.406,109.294 10.403,60.945 19.218,58.862 "
         style="fill:#231f20;stroke-width:0.5276221" />
      <path
         id="path942"
         transform="translate(-4e-4)"
         d="m 32.3625,105.18069 a 5.4385,5.4385 0 1 0 -10.877,0 l 0.009,45.189 a 14.74433,14.74433 0 0 0 14.716,14.726 c 4.117,0 15.395,-0.02 15.395,-0.02 l 0.005,-18.852 c 0.003,-10.3 0.005,-20.784 0.005,-21.023 a 7.11906,7.11906 0 0 0 -3.163,-5.927 l -13.721,-9.319 c 0,0 -0.003,20.232 -0.003,21.162 a 1.17,1.17 0 1 1 -2.34,0 c 0,-0.227 -0.026,-23.141 -0.026,-25.936"
         inkscape:connector-curvature="0"
         style="fill:#231f20;stroke-width:0.5276221" />
      <path
         id="path944"
         transform="translate(-4e-4)"
         d="m 39.7075,71.4653 a 11.89208,11.89208 0 0 0 -7.846,6.066 v -3.398 l -7.937,1.878 0.009,21.7 a 8.12,8.12 0 0 1 8.357,1.461 v -14.011 c 0,-3.356 1.67,-6.037 4.056,-6.563 1.795,-0.394 3.294,0.248 3.294,3.445 l 0.006,20.442 8.36,-1.96 v -21.625 c 0,-5.243 -2.019,-8.908 -8.299,-7.435"
         inkscape:connector-curvature="0"
         style="fill:#231f20;stroke-width:0.5276221" />
      <path
         id="path946"
         transform="translate(-4e-4)"
         d="m 161.17329,40.52094 a 5.16751,5.16751 0 1 1 5.163,-5.165 5.17,5.17 0 0 1 -5.163,5.165 m 0,-9.685 a 4.519,4.519 0 1 0 4.518,4.52 4.52365,4.52365 0 0 0 -4.518,-4.52"
         inkscape:connector-curvature="0"
         style="fill:#231f20;stroke-width:0.5276221" />
      <path
         id="path948"
         transform="translate(-4e-4)"
         d="m 159.2916,32.27661 h 2.227 a 1.45621,1.45621 0 0 1 1.601,1.621 c 0,0.818 -0.363,1.447 -1.051,1.554 v 0.012 c 0.626,0.064 0.955,0.409 0.987,1.296 0.012,0.4 0.018,0.896 0.037,1.282 a 0.6492,0.6492 0 0 0 0.299,0.545 h -1.138 a 1.05074,1.05074 0 0 1 -0.17,-0.56 c -0.035,-0.377 -0.026,-0.733 -0.043,-1.191 -0.017,-0.688 -0.228,-0.989 -0.919,-0.989 h -0.824 v 2.74 h -1.006 z m 1.812,2.81 a 0.92762,0.92762 0 0 0 1.007,-1.023 c 0,-0.673 -0.291,-1.027 -0.954,-1.027 h -0.859 v 2.05 z"
         inkscape:connector-curvature="0"
         style="fill:#231f20;stroke-width:0.5276221" />
    </g>
    <text
       xml:space="preserve"
       style="font-style:normal;font-variant:normal;font-weight:bold;font-stretch:normal;font-size:18.34444427px;line-height:125%;font-family:sans-serif;-inkscape-font-specification:'sans-serif, Bold';font-variant-ligatures:normal;font-variant-caps:normal;font-variant-numeric:normal;font-feature-settings:normal;text-align:start;letter-spacing:0px;word-spacing:0px;writing-mode:lr-tb;text-anchor:start;fill:#ffffff;fill-opacity:1;stroke:none;stroke-width:0.26458332px;stroke-linecap:butt;stroke-linejoin:miter;stroke-opacity:1"
       x="96.066055"
       y="255.24683"
       id="text1035"><tspan
         sodipodi:role="line"
         id="tspan1033"
         x="96.066055"
         y="255.24683"
         style="font-style:normal;font-variant:normal;font-weight:bold;font-stretch:normal;font-size:18.34444427px;font-family:sans-serif;-inkscape-font-specification:'sans-serif, Bold';font-variant-ligatures:normal;font-variant-caps:normal;font-variant-numeric:normal;font-feature-settings:normal;text-align:start;writing-mode:lr-tb;text-anchor:start;fill:#ffffff;stroke-width:0.26458332px">e-Transfer</tspan></text>
  </g>
</svg>
