<?xml version="1.0" encoding="UTF-8" standalone="no"?>
<!-- Created with Inkscape (http://www.inkscape.org/) -->

<svg
   xmlns:dc="http://purl.org/dc/elements/1.1/"
   xmlns:cc="http://creativecommons.org/ns#"
   xmlns:rdf="http://www.w3.org/1999/02/22-rdf-syntax-ns#"
   xmlns:svg="http://www.w3.org/2000/svg"
   xmlns="http://www.w3.org/2000/svg"
   xmlns:sodipodi="http://sodipodi.sourceforge.net/DTD/sodipodi-0.dtd"
   xmlns:inkscape="http://www.inkscape.org/namespaces/inkscape"
   width="458.34738"
   height="109.22169"
   viewBox="0 0 121.27108 28.898243"
   version="1.1"
   id="svg2113"
   inkscape:version="0.92.5 (2060ec1f9f, 2020-04-08)"
   sodipodi:docname="onionavailable.svg">
  <defs
     id="defs2107">
    <linearGradient
       id="linearGradient-1"
       y2="0"
       x2="0.5"
       y1="1"
       x1="0.5">
      <stop
         id="stop2271"
         offset="0%"
         stop-color="#420C5D" />
      <stop
         id="stop2273"
         offset="100%"
         stop-color="#951AD1" />
    </linearGradient>
    <path
       id="path-2"
       d="M 25,29 C 152.57778,29 256,131.97451 256,259 256,386.02549 152.57778,489 25,489 Z"
       inkscape:connector-curvature="0" />
    <filter
       id="filter-3"
       filterUnits="objectBoundingBox"
       height="1.148"
       width="1.2939999"
       y="-0.074000001"
       x="-0.18200001">
      <feOffset
         id="feOffset2277"
         result="shadowOffsetOuter1"
         in="SourceAlpha"
         dy="0"
         dx="-8" />
      <feGaussianBlur
         id="feGaussianBlur2279"
         result="shadowBlurOuter1"
         in="shadowOffsetOuter1"
         stdDeviation="10" />
      <feColorMatrix
         id="feColorMatrix2281"
         in="shadowBlurOuter1"
         type="matrix"
         values="0 0 0 0 0.250980392   0 0 0 0 0.250980392   0 0 0 0 0.250980392  0 0 0 0.2 0" />
    </filter>
  </defs>
  <sodipodi:namedview
     id="base"
     pagecolor="#ffffff"
     bordercolor="#666666"
     borderopacity="1.0"
     inkscape:pageopacity="0.0"
     inkscape:pageshadow="2"
     inkscape:zoom="2.4538768"
     inkscape:cx="164.37823"
     inkscape:cy="54.61085"
     inkscape:document-units="mm"
     inkscape:current-layer="layer1"
     showgrid="false"
     units="px" />
  <metadata
     id="metadata2110">
    <rdf:RDF>
      <cc:Work
         rdf:about="">
        <dc:format>image/svg+xml</dc:format>
        <dc:type
           rdf:resource="http://purl.org/dc/dcmitype/StillImage" />
        <dc:title />
      </cc:Work>
    </rdf:RDF>
  </metadata>
  <g
     inkscape:label="Layer 1"
     inkscape:groupmode="layer"
     id="layer1"
     transform="translate(-8.5088063,-88.135025)">
    <rect
       style="opacity:1;fill:#800080;fill-opacity:1;stroke:#000000;stroke-width:0.99999994;stroke-linecap:butt;stroke-linejoin:round;stroke-miterlimit:4;stroke-dasharray:none;stroke-dashoffset:0;stroke-opacity:1"
       id="rect2326"
       width="120.27108"
       height="27.898239"
       x="9.0088062"
       y="88.635025"
       rx="5.0000005"
       ry="5" />
    <text
       xml:space="preserve"
       style="font-style:normal;font-variant:normal;font-weight:600;font-stretch:normal;font-size:11.28888893px;line-height:125%;font-family:FreeSans;-inkscape-font-specification:'FreeSans, Semi-Bold';font-variant-ligatures:normal;font-variant-caps:normal;font-variant-numeric:normal;font-feature-settings:normal;text-align:start;letter-spacing:0px;word-spacing:0px;writing-mode:lr-tb;text-anchor:start;fill:#ffffff;fill-opacity:1;stroke:none;stroke-width:0.26458332px;stroke-linecap:butt;stroke-linejoin:miter;stroke-opacity:1;"
       x="35.332516"
       y="107.07772"
       id="text2330"><tspan
         sodipodi:role="line"
         id="tspan2328"
         x="35.332516"
         y="107.07772"
         style="font-style:normal;font-variant:normal;font-weight:600;font-stretch:normal;font-size:11.28888893px;font-family:FreeSans;-inkscape-font-specification:'FreeSans, Semi-Bold';font-variant-ligatures:normal;font-variant-caps:normal;font-variant-numeric:normal;font-feature-settings:normal;text-align:start;writing-mode:lr-tb;text-anchor:start;fill:#ffffff;stroke-width:0.26458332px;">.onion available</tspan></text>
    <g
       id="g3269"
       transform="matrix(0.16391524,0,0,0.16391524,42.030336,87.07453)"
       style="stroke-width:6.10071468">
      <path
         id="path3207"
         d="m -107.3671,31.023245 -3.72489,15.162382 c 5.27628,-10.708942 13.65729,-18.767222 23.280587,-25.872041 -7.036347,8.376578 -13.450577,16.753939 -17.382837,25.130583 6.622247,-9.543542 15.520389,-14.8448 25.556476,-18.344062 -13.347539,12.194138 -23.942486,25.27907 -32.013096,38.427387 l -6.41423,-2.862796 c 1.13664,-10.497459 5.00696,-21.24931 10.69799,-31.641453 z"
         inkscape:connector-curvature="0"
         style="fill:#abcd03;stroke-width:40.35368347" />
      <path
         id="path3209"
         d="m -124.49692,59.876897 12.20959,5.190854 c 0,3.181681 -0.25237,12.88584 1.68899,15.748635 20.306282,26.800724 16.889839,80.523454 -4.11291,81.901384 -31.98375,0 -44.18154,-22.26655 -44.18154,-42.73195 0,-18.6623 21.83087,-31.068179 34.86866,-42.095485 3.3108,-2.96909 2.73628,-9.530695 -0.47279,-18.013438 z"
         inkscape:connector-curvature="0"
         style="fill:#fffcdb;stroke-width:40.35368347" />
      <path
         id="path3211"
         d="m -112.28276,64.88255 4.39984,2.300018 c -0.41345,2.968438 0.20672,9.543738 3.10342,11.239243 12.830412,8.16451 24.935667,17.071782 29.695472,25.978399 16.969399,31.38706 -11.898534,60.43955 -36.834202,57.68305 13.554263,-10.28585 17.485879,-31.38641 12.416318,-54.39638 -2.069168,-9.013563 -5.277588,-17.178073 -10.968618,-26.402926 -2.46565,-4.528303 -1.60486,-10.144338 -1.81223,-16.401404 z"
         inkscape:connector-curvature="0"
         style="fill:#ffffff;stroke-width:40.35368347" />
      <path
         id="path3213"
         d="m -114.40279,64.107834 9.10486,1.272281 c -2.68999,9.11921 5.27758,15.480615 7.863882,16.966139 5.794063,3.287323 11.381405,6.68029 15.830802,10.815367 8.381665,7.846279 13.140818,18.874229 13.140818,30.538009 0,11.55747 -5.173899,22.69107 -13.864668,30.11347 -8.174292,6.99853 -19.452014,9.96762 -30.419974,9.96762 -6.82897,0 -12.93344,-0.31758 -19.55504,-2.54522 -15.10565,-5.19542 -26.38435,-18.4497 -27.31544,-34.3555 -0.82806,-12.40653 1.86219,-21.84332 11.27857,-31.704641 4.86218,-5.195419 14.6922,-11.1336 21.41814,-15.905143 3.31145,-2.333276 6.82897,-8.907924 0.10303,-21.313153 l 1.34532,-1.060604 9.96762,6.841625 -8.41493,-3.55404 c 0.72385,1.060343 2.68999,5.831886 3.10474,7.210462 0.93122,3.923138 0.51712,7.741286 -0.31106,9.436791 -4.24138,7.846928 -11.48444,9.967614 -16.76073,14.420924 -9.31288,7.846277 -19.45259,14.102689 -18.31465,35.627779 0.51746,10.60278 8.58832,23.53948 20.69293,29.58396 6.82962,3.39362 14.69351,4.77154 22.66042,5.19542 7.13873,0.31823 20.796679,-4.02943 28.246468,-10.39149 7.966919,-6.78528 12.416316,-17.07113 12.416316,-27.56826 0,-10.60408 -4.138989,-20.67734 -11.899186,-27.782161 -4.449397,-4.135077 -11.794848,-9.118558 -16.347278,-11.770067 -4.55243,-2.650857 -10.24346,-10.073258 -8.38167,-17.177424 z"
         inkscape:connector-curvature="0"
         style="fill:#000000;stroke-width:40.35368347" />
      <path
         id="path3215"
         d="m -117.19712,79.800387 c -0.93122,4.877838 -1.96613,13.678163 -6.10447,16.965487 -1.75941,1.272281 -3.51882,2.545214 -5.38062,3.816846 -7.44979,5.19672 -14.90023,10.07325 -18.31341,22.58543 -0.7245,2.65151 -0.10304,5.51431 0.51778,8.16516 1.86245,7.63434 7.13873,15.90515 11.27772,20.78298 0,0.21194 0.82819,0.74277 0.82819,0.9547 3.41448,4.13573 4.44939,5.30172 17.38219,8.27016 l -0.31041,1.48487 c -7.7602,-2.12004 -14.17443,-4.02878 -18.21038,-8.80098 0,-0.10564 -0.7245,-0.8484 -0.7245,-0.8484 -4.34571,-5.09043 -9.6233,-13.57252 -11.58813,-21.52509 -0.7245,-3.18168 -1.34467,-5.61995 -0.51778,-8.90793 3.51752,-12.9354 11.17468,-18.02583 18.93488,-23.433184 1.75941,-1.165986 3.82858,-2.227633 5.48366,-3.605557 3.20711,-2.438267 4.96522,-9.86132 6.72528,-15.904492 z"
         inkscape:connector-curvature="0"
         style="fill:#000000;stroke-width:40.35368347" />
      <path
         id="path3217"
         d="m -113.88632,99.94625 c 0.10434,5.5143 -0.42127,8.28059 0.9234,12.20438 0.82754,2.33197 3.62316,5.51365 4.45135,8.58904 1.13795,4.13572 2.37697,8.69468 2.27263,11.45183 0,3.18168 -0.19433,9.1166 -1.53899,15.47931 -1.02513,5.25737 -3.38906,9.76807 -7.36306,12.32567 -4.07052,-0.85949 -8.85054,-2.32545 -11.6716,-4.80415 -5.48365,-4.87718 -10.34062,-13.03322 -10.96144,-20.13804 -0.51713,-5.83123 4.75198,-14.43201 12.09808,-18.77902 6.20751,-3.7112 7.6513,-7.94083 8.99596,-14.72742 -1.86179,5.93753 -3.61077,10.91579 -9.61156,14.09617 -8.69142,4.6659 -13.15125,12.49718 -12.73715,19.91958 0.62016,9.54308 4.34962,16.00948 11.69507,21.20555 3.10408,2.22698 8.90271,4.57982 12.52457,5.21629 v -0.48518 c 2.74606,-0.52691 6.30141,-5.14912 8.07321,-11.40292 1.55204,-5.61995 2.16373,-12.81215 2.05939,-17.37241 -0.10369,-2.6502 -1.2449,-8.39145 -3.31472,-13.58686 -1.13794,-2.8628 -2.88562,-5.72494 -4.02421,-7.73999 -1.24033,-2.01634 -1.24946,-6.36205 -1.87093,-11.45183 z"
         inkscape:connector-curvature="0"
         style="fill:#000000;stroke-width:40.35368347" />
      <path
         id="path3219"
         d="m -114.50518,120.73901 c 0.10304,3.7112 1.55791,8.46644 2.17808,13.34428 0.51843,3.60556 0.29345,7.22742 0.18976,10.4091 -0.10238,3.68251 -1.29967,10.28063 -2.93583,13.4897 -1.54291,-0.72515 -2.14612,-1.55204 -3.14908,-2.88758 -1.24098,-1.80245 -2.08351,-3.60555 -2.9117,-5.72559 -0.62082,-1.59116 -1.34597,-3.41187 -1.65703,-5.53191 -0.4141,-3.18103 -0.29802,-8.15733 3.2195,-13.24711 2.68999,-4.03009 3.30689,-4.33593 4.23811,-9.00183 -1.24293,4.13508 -2.16894,4.557 -5.06695,8.05561 -3.20646,3.81749 -3.74054,9.44005 -3.74054,13.999 0,1.9094 0.74276,4.02748 1.46791,6.04187 0.82754,2.12068 1.5377,4.23289 2.67564,5.82275 1.7105,2.57848 3.89966,4.04444 4.97174,4.31898 0.007,0.001 0.0163,-0.002 0.0235,0 0.0228,0.005 0.0489,0.0196 0.0711,0.0241 v -0.1213 c 2.00722,-2.29415 3.21559,-4.57264 3.62186,-6.86679 0.51778,-2.7565 0.63647,-5.51953 0.94753,-8.80685 0.30975,-2.75715 0.0848,-6.47096 -0.63973,-10.28715 -1.03361,-4.7722 -2.77932,-9.63699 -3.50383,-13.02931 z"
         inkscape:connector-curvature="0"
         style="fill:#000000;stroke-width:40.35368347" />
      <path
         id="path3221"
         d="m -114.19477,75.345773 c 0.10369,5.513001 0.51713,15.799501 1.96613,19.828282 0.41345,1.377924 4.24138,7.422405 6.93136,14.738505 1.86245,5.08978 2.27654,9.75568 2.58695,11.1336 1.24163,6.04448 -0.31041,16.22338 -2.38023,25.87276 -1.03426,5.19542 -4.55243,11.66377 -8.58773,14.20898 l -0.82689,1.48422 c 2.27654,-0.10629 7.86258,-5.72559 9.82872,-12.72411 3.31145,-11.87571 4.65611,-17.39002 3.10473,-30.53866 -0.20672,-1.27293 -0.72385,-5.61929 -2.68999,-10.28519 -2.89735,-7.10482 -7.03634,-13.890757 -7.55282,-15.269985 -0.93188,-2.225677 -2.17351,-11.875058 -2.38023,-18.448402 z"
         inkscape:connector-curvature="0"
         style="fill:#000000;stroke-width:40.35368347" />
      <path
         id="path3223"
         d="m -112.25537,67.80534 c -0.3065,5.666248 -0.38866,7.753024 0.64494,11.8881 1.13795,4.559605 6.93331,11.1336 9.31289,18.662296 4.552432,14.420924 3.414487,33.295154 0.10304,48.033664 -1.24098,5.19477 -7.14004,12.72477 -13.03714,15.16238 l 4.34571,1.06034 c 2.37958,-0.10629 8.48405,-5.93753 10.86428,-12.61782 3.827277,-10.49778 4.552432,-23.00931 2.99974,-36.15795 -0.103686,-1.27228 -2.173507,-12.61782 -4.13834,-17.389362 -2.79432,-7.104167 -7.76085,-13.466876 -8.27797,-14.844148 -0.92992,-2.333276 -2.97431,-7.177204 -2.81715,-13.7975 z"
         inkscape:connector-curvature="0"
         style="fill:#000000;stroke-width:40.35368347" />
      <rect
         id="rect3225"
         height="97.841087"
         width="3.2084501"
         y="63.818947"
         x="-115.54335"
         style="fill:#000000;stroke-width:40.35368347" />
    </g>
  </g>
</svg>
