<?xml version="1.0" encoding="UTF-8" standalone="no"?>
<!-- Generator: Adobe Illustrator 25.1.0, SVG Export Plug-In . SVG Version: 6.00 Build 0)  -->

<svg
   xmlns:dc="http://purl.org/dc/elements/1.1/"
   xmlns:cc="http://creativecommons.org/ns#"
   xmlns:rdf="http://www.w3.org/1999/02/22-rdf-syntax-ns#"
   xmlns:svg="http://www.w3.org/2000/svg"
   xmlns="http://www.w3.org/2000/svg"
   xmlns:sodipodi="http://sodipodi.sourceforge.net/DTD/sodipodi-0.dtd"
   xmlns:inkscape="http://www.inkscape.org/namespaces/inkscape"
   version="1.1"
   id="Layer_1"
   x="0px"
   y="0px"
   viewBox="0 0 516.40004 116.9"
   xml:space="preserve"
   sodipodi:docname="Wise-logo.svg"
   width="516.40002"
   height="116.9"
   inkscape:version="0.92.5 (2060ec1f9f, 2020-04-08)"><metadata
   id="metadata906"><rdf:RDF><cc:Work
       rdf:about=""><dc:format>image/svg+xml</dc:format><dc:type
         rdf:resource="http://purl.org/dc/dcmitype/StillImage" /></cc:Work></rdf:RDF></metadata><defs
   id="defs904" /><sodipodi:namedview
   pagecolor="#ffffff"
   bordercolor="#666666"
   borderopacity="1"
   objecttolerance="10"
   gridtolerance="10"
   guidetolerance="10"
   inkscape:pageopacity="0"
   inkscape:pageshadow="2"
   inkscape:window-width="640"
   inkscape:window-height="480"
   id="namedview902"
   showgrid="false"
   inkscape:zoom="2.5009474"
   inkscape:cx="258.19999"
   inkscape:cy="58.500002"
   inkscape:current-layer="Layer_1" />
<style
   type="text/css"
   id="style888">
	.st0{fill:#2E4369;}
	.st1{fill:#00B9FF;}
</style>
<g
   id="Blue_Navy"
   transform="translate(-5.7,-5.7)">
	<g
   id="Wise_7_">
		<path
   class="st0"
   d="m 522.1,56.8 c 0,-30 -20.9,-51.1 -50.2,-51.1 -37.3,0 -62.3,27.1 -62.3,65.8 0,30.2 21.1,51.1 50.9,51.1 27.1,0 47.3,-13.1 55.6,-34 H 486 c -4,6.5 -12.5,10.6 -22.9,10.6 -16,0 -26,-10.6 -26.9,-25.6 h 84.2 c 1.1,-5.7 1.7,-10.6 1.7,-16.8 z m -83.6,-3.5 c 2.7,-13.8 16.1,-24.8 32.3,-24.8 14,0 24.6,10.2 24.6,24.8 z"
   id="path890"
   inkscape:connector-curvature="0"
   style="fill:#2e4369" />
		<path
   class="st0"
   d="m 328.7,119.9 5.4,-28.8 c 16.5,3.3 19,-6 23.3,-28.4 l 2.1,-11.1 c 6,-31.3 18.1,-46.9 52.7,-42.7 l -5.4,28.8 c -16.5,-3.3 -19.4,9.2 -23.1,28.6 l -2.1,11.1 c -6,31.7 -18.5,46.7 -52.9,42.5 z"
   id="path892"
   inkscape:connector-curvature="0"
   style="fill:#2e4369" />
		<polygon
   class="st0"
   points="335.6,8.4 315.3,120 288.3,120 308.7,8.4 "
   id="polygon894"
   style="fill:#2e4369" />
		<polygon
   class="st0"
   points="168.8,89.1 203,8.4 228.9,8.4 238,89.9 271,8.4 297,8.4 249.7,120 220.1,120 210.5,43.2 177.8,120 149.2,120 134.2,8.4 160.3,8.4 "
   id="polygon896"
   style="fill:#2e4369" />
	</g>
	<polygon
   id="FF_7_"
   class="st1"
   points="58.4,67.6 63.9,54.7 37.2,54.7 53.9,38 44.2,21.3 89.5,21.3 47.7,120 63.4,120 110.7,8.4 19.3,8.4 36.7,38 5.7,67.6 "
   style="fill:#00b9ff" />
</g>
</svg>